Coordinates
version=1
nRows=13
nColumns=36
inDegrees=yes

Units are S.I. units (second, meters, Newtons, ...)
If the header above contains a line with 'inDegrees', this indicates whether rotational values are in degrees (yes) or radians (no).

endheader
time	pelvis_tilt	pelvis_list	pelvis_rotation	pelvis_tx	pelvis_ty	pelvis_tz	hip_flexion_r	hip_adduction_r	hip_rotation_r	knee_angle_r	knee_angle_r_beta	ankle_angle_r	subtalar_angle_r	mtp_angle_r	hip_flexion_l	hip_adduction_l	hip_rotation_l	knee_angle_l	knee_angle_l_beta	ankle_angle_l	subtalar_angle_l	mtp_angle_l	lumbar_extension	lumbar_bending	lumbar_rotation	arm_flex_r	arm_add_r	arm_rot_r	elbow_flex_r	pro_sup_r	arm_flex_l	arm_add_l	arm_rot_l	elbow_flex_l	pro_sup_l
      5.50000000	      5.15571311	     -2.53513536	     -2.28897866	      0.25429668	      0.99448594	     -0.04532719	     -2.45754684	      2.46562385	     -6.38149318	      1.50276724	      0.02622824	      6.27208050	      4.73622988	     -7.49999987	     -1.88099385	     -2.25831167	    -10.30686371	      4.73314464	      0.08260896	      7.84358271	      5.61477574	     -7.49999987	     -7.12797412	      2.99867599	      5.88729032	     20.41831478	     -5.17907365	     27.82887576	     10.83941238	     67.30781295	      4.98974917	     -4.29804909	     13.97443227	     20.88618000	     56.19579892
      5.51666670	      4.97565053	     -2.55921746	     -2.41917525	      0.25336738	      0.99346491	     -0.04420667	     -2.19309508	      2.49991852	     -6.00719921	      1.58885733	      0.02773079	      6.38383075	      4.40408186	     -7.49999987	     -1.64608877	     -2.32904403	    -10.54283293	      4.82741386	      0.08425427	      8.05299556	      5.82143309	     -7.49999987	     -6.82481180	      3.02384740	      5.87963457	     20.45530562	     -5.09144058	     24.07774164	     11.21565343	     72.23900771	      5.04330230	     -4.44859132	     15.63863630	     20.66988920	     52.37965764
      5.53333330	      4.87951648	     -2.60486767	     -2.45617129	      0.25399988	      0.99440980	     -0.04324087	     -2.05068936	      2.56516867	     -5.88744575	      1.62739251	      0.02840336	      6.65899975	      4.48746354	     -7.49999987	     -1.56482387	     -2.41947188	    -10.46753240	      4.79642909	      0.08371348	      8.09369267	      5.72949723	     -7.49999987	     -6.64408267	      3.00197494	      5.79519137	     20.39333952	     -5.12308450	     22.89991396	     12.03649614	     70.56905280	      4.98244540	     -4.49076692	     15.20016491	     20.61663758	     53.33020480
      5.55000000	      4.87509908	     -2.62460255	     -2.53894373	      0.25555810	      1.00054167	     -0.04512791	     -2.01929305	      2.59253024	     -5.90772378	      1.69857960	      0.02964581	      6.65097491	      4.47961732	     -7.49999987	     -1.53513666	     -2.47011005	    -10.47728234	      4.81545435	      0.08404553	      8.04002525	      5.73526241	     -7.49999987	     -6.59428147	      2.94394396	      5.77318406	     20.51389224	     -5.21325855	     22.88880038	     12.13383775	     70.57145000	      4.89807497	     -4.51438304	     15.21415269	     20.61334018	     53.33261197
      5.56666670	      4.83783142	     -2.66607609	     -2.56791583	      0.25620627	      1.00062316	     -0.04553005	     -2.05967069	      2.65252630	     -5.66709767	      1.49602290	      0.02611053	      6.35375582	      4.45769970	     -7.49999987	     -1.57535320	     -2.50103268	    -10.55236534	      4.68511152	      0.08177062	      7.75211707	      5.79105419	     -7.49999987	     -6.45553765	      3.03551452	      5.39099007	     20.41354928	     -5.26180627	     22.13177303	     13.26685260	     69.74514644	      4.57215735	     -4.58811380	     15.19484130	     20.66455382	     53.98833677
      5.58333330	      4.82483779	     -2.66340600	     -2.60188089	      0.25624571	      1.00242972	     -0.04498388	     -2.07316289	      2.64961195	     -5.64161912	      1.40924060	      0.02459589	      6.17648355	      4.66444184	     -7.49999987	     -1.62240850	     -2.49462707	    -10.46677762	      4.56237392	      0.07962845	      7.40063771	      5.64647483	     -7.49999987	     -6.39140848	      3.01806575	      5.35282535	     20.18137846	     -5.30658842	     19.12199743	     14.30682018	     74.08715637	      4.47615143	     -4.65749908	     16.05401165	     20.67649590	     52.52993418
      5.60000000	      4.78676903	     -2.66685468	     -2.65250526	      0.25592526	      1.00164651	     -0.04436116	     -2.07147353	      2.68746978	     -5.47975513	      1.29296826	      0.02256655	      6.00171505	      4.63079315	     -7.49999987	     -1.63561810	     -2.50892133	    -10.58027827	      4.50249357	      0.07858334	      7.22545035	      5.84420502	     -7.49999987	     -6.28454258	      2.97068803	      5.36401258	     19.88408350	     -5.32865852	     17.32429125	     15.55841563	     71.38152055	      4.43223902	     -4.56848132	     15.38823824	     20.41416400	     53.79741100
      5.61666670	      4.81623066	     -2.66645908	     -2.70440723	      0.25601886	      0.99999786	     -0.04518849	     -2.11941468	      2.69202314	     -5.29810370	      1.20711559	      0.02106814	      5.83404021	      4.50300009	     -7.49999987	     -1.69576626	     -2.49193333	    -10.67717953	      4.47936389	      0.07817965	      7.00845876	      5.71764294	     -7.49999987	     -6.26834184	      2.95286563	      5.28943701	     19.87520930	     -5.42290274	     16.61761068	     16.13534699	     73.73196957	      4.34830239	     -4.68229739	     16.12124528	     20.56323613	     53.44683897
      5.63333330	      4.80751857	     -2.63345924	     -2.73637286	      0.25633629	      1.00063952	     -0.04462821	     -2.14461153	      2.68493920	     -5.22225830	      1.14590238	      0.01999977	      5.69345262	      4.45273621	     -7.49999987	     -1.69266072	     -2.46787006	    -10.75280465	      4.51817498	      0.07885703	      6.83237060	      5.68944707	     -7.49999987	     -6.18558764	      2.89584701	      5.17481875	     19.72030431	     -5.42630957	     15.10931851	     17.07935906	     74.13486403	      4.24123913	     -4.69508058	     16.21741936	     20.50605906	     53.66985102
      5.65000000	      4.79554040	     -2.65190554	     -2.71639160	      0.25654908	      0.99833328	     -0.04406678	     -2.15917341	      2.72777009	     -5.34794874	      1.11236794	      0.01941448	      5.76681687	      4.69608648	     -7.49999987	     -1.68901314	     -2.49408580	    -10.73984367	      4.57234911	      0.07980255	      6.81585950	      5.55520318	     -7.49999987	     -6.14179144	      2.88037462	      5.26054545	     19.23687000	     -5.32457243	     10.70724051	     18.64298334	     78.14949383	      4.26891019	     -4.73500461	     16.74637341	     20.55513539	     51.85718382
      5.66666670	      4.84657486	     -2.63832626	     -2.74258857	      0.25667650	      0.99769994	     -0.04384423	     -2.28141206	      2.71940606	     -5.33233354	      1.12537224	      0.01964145	      5.74050398	      4.66464235	     -7.49999987	     -1.75834153	     -2.48645703	    -10.73570898	      4.61242189	      0.08050195	      6.75540367	      5.47186432	     -7.49999987	     -6.12232324	      2.83095352	      5.15908830	     19.23944429	     -5.36875088	     10.90088386	     19.40210123	     76.16182996	      4.15261235	     -4.77209062	     16.58596251	     20.53219648	     53.36143822
      5.68333330	      4.90080120	     -2.65991707	     -2.75399008	      0.25976861	      0.99811927	     -0.04408122	     -2.42360625	      2.75302123	     -5.30737745	      1.10596611	      0.01930275	      5.67139414	      4.56777579	     -7.49999987	     -1.90339285	     -2.52790113	    -10.80793831	      4.55010461	      0.07941431	      6.71706738	      5.60880915	     -7.49999987	     -6.07206247	      2.82870362	      5.06260107	     18.91711786	     -5.30150449	      9.29024795	     20.41057853	     77.05831949	      3.91748207	     -4.81326071	     16.53964896	     20.70329687	     53.05953293
      5.70000000	      4.92747465	     -2.68983283	     -2.71315426	      0.26057884	      0.99747569	     -0.04498375	     -2.54660432	      2.74926577	     -5.47091042	      1.13657167	      0.01983692	      5.76247031	      4.68477060	     -7.49999987	     -2.04699315	     -2.54564217	    -10.61452337	      4.41020151	      0.07697254	      6.77627458	      5.59549866	     -7.49999987	     -6.00873802	      2.87198848	      5.07154342	     18.44188534	     -5.16890766	      6.07180441	     21.73057355	     80.15953657	      3.81657015	     -4.78879293	     16.85940708	     20.70853714	     51.85870764
